<?xml version="1.0" encoding="utf-8"?>
<!-- Generator: Adobe Illustrator 17.0.0, SVG Export Plug-In . SVG Version: 6.00 Build 0)  -->
<!DOCTYPE svg PUBLIC "-//W3C//DTD SVG 1.1//EN" "http://www.w3.org/Graphics/SVG/1.1/DTD/svg11.dtd">
<svg version="1.1" id="圖層_1" xmlns="http://www.w3.org/2000/svg" xmlns:xlink="http://www.w3.org/1999/xlink" x="0px" y="0px"
	 width="305px" height="670px" viewBox="0 0 305 670" enable-background="new 0 0 305 670" xml:space="preserve">
<path fill="none" stroke="#000000" stroke-width="2" d="M304,1H1v668h303V1z"/>
<path fill="none" stroke="#000000" stroke-width="2" d="M280.58,1v668"/>
<path fill="none" stroke="#000000" stroke-width="2" d="M23.688,1v668"/>
<path fill="none" stroke="#000000" stroke-width="2" d="M1,630.544h303"/>
<path fill="none" stroke="#000000" stroke-width="2" d="M1,33.759h303"/>
<path fill="none" stroke="#000000" stroke-width="2" d="M1,236.011h303"/>
<path fill="none" stroke="#000000" stroke-width="2" d="M152.5,1v235.011"/>
<path fill="none" stroke="#000000" stroke-width="2" d="M1,433.989h303"/>
<path fill="none" stroke="#000000" stroke-width="2" d="M152.5,433.989V669"/>
<g>
	<line fill="none" x1="1" y1="334.288" x2="304" y2="334.288"/>
	<g>
		<line fill="none" stroke="#000000" stroke-width="2" x1="1" y1="334.288" x2="5" y2="334.288"/>
		
			<line fill="none" stroke="#000000" stroke-width="2" stroke-dasharray="1.9799,3.9597" x1="8.96" y1="334.288" x2="12.919" y2="334.288"/>
		
			<line fill="none" stroke="#000000" stroke-width="2" stroke-dasharray="7.9195,3.9597,1.9799,3.9597" x1="14.899" y1="334.288" x2="298.02" y2="334.288"/>
		<line fill="none" stroke="#000000" stroke-width="2" x1="300" y1="334.288" x2="304" y2="334.288"/>
	</g>
</g>
<g opacity="0.3">
	<g>
		<line fill="none" stroke="#000000" stroke-width="2" x1="1" y1="451" x2="5.5" y2="451"/>
		
			<line fill="none" stroke="#000000" stroke-width="2" stroke-dasharray="8.9091,8.9091" x1="14.409" y1="451" x2="295.045" y2="451"/>
		<line fill="none" stroke="#000000" stroke-width="2" x1="299.5" y1="451" x2="304" y2="451"/>
	</g>
</g>
<g opacity="0.3">
	<g>
		<line fill="none" stroke="#000000" stroke-width="2" x1="227" y1="0" x2="227" y2="4.5"/>
		
			<line fill="none" stroke="#000000" stroke-width="2" stroke-dasharray="9.0274,9.0274" x1="227" y1="13.527" x2="227" y2="658.986"/>
		<line fill="none" stroke="#000000" stroke-width="2" x1="227" y1="663.5" x2="227" y2="668"/>
	</g>
</g>
<g opacity="0.3">
	<g>
		<line fill="none" stroke="#000000" stroke-width="2" x1="78" y1="1" x2="78" y2="5.5"/>
		
			<line fill="none" stroke="#000000" stroke-width="2" stroke-dasharray="9.0274,9.0274" x1="78" y1="14.527" x2="78" y2="659.986"/>
		<line fill="none" stroke="#000000" stroke-width="2" x1="78" y1="664.5" x2="78" y2="669"/>
	</g>
</g>
<g opacity="0.3">
	<g>
		<line fill="none" stroke="#000000" stroke-width="2" x1="1" y1="55" x2="5.5" y2="55"/>
		
			<line fill="none" stroke="#000000" stroke-width="2" stroke-dasharray="8.9091,8.9091" x1="14.409" y1="55" x2="295.045" y2="55"/>
		<line fill="none" stroke="#000000" stroke-width="2" x1="299.5" y1="55" x2="304" y2="55"/>
	</g>
</g>
<g opacity="0.3">
	<g>
		<line fill="none" stroke="#000000" stroke-width="2" x1="1" y1="219" x2="5.5" y2="219"/>
		
			<line fill="none" stroke="#000000" stroke-width="2" stroke-dasharray="8.9091,8.9091" x1="14.409" y1="219" x2="295.045" y2="219"/>
		<line fill="none" stroke="#000000" stroke-width="2" x1="299.5" y1="219" x2="304" y2="219"/>
	</g>
</g>
<g opacity="0.3">
	<g>
		<line fill="none" stroke="#000000" stroke-width="2" x1="1" y1="615" x2="5.5" y2="615"/>
		
			<line fill="none" stroke="#000000" stroke-width="2" stroke-dasharray="8.9091,8.9091" x1="14.409" y1="615" x2="295.045" y2="615"/>
		<line fill="none" stroke="#000000" stroke-width="2" x1="299.5" y1="615" x2="304" y2="615"/>
	</g>
</g>
</svg>
